<?xml version="1.0" encoding="UTF-8" standalone="no"?>
<!-- Created with Inkscape (http://www.inkscape.org/) -->

<svg
   xmlns:dc="http://purl.org/dc/elements/1.1/"
   xmlns:cc="http://creativecommons.org/ns#"
   xmlns:rdf="http://www.w3.org/1999/02/22-rdf-syntax-ns#"
   xmlns:svg="http://www.w3.org/2000/svg"
   xmlns="http://www.w3.org/2000/svg"
   xmlns:sodipodi="http://sodipodi.sourceforge.net/DTD/sodipodi-0.dtd"
   xmlns:inkscape="http://www.inkscape.org/namespaces/inkscape"
   width="210mm"
   height="297mm"
   viewBox="0 0 210 297"
   version="1.1"
   id="svg8"
   inkscape:version="0.92.5 (2060ec1f9f, 2020-04-08)"
   sodipodi:docname="plusiam-menu-tag.svg">
  <defs
     id="defs2">
    <filter
       inkscape:collect="always"
       style="color-interpolation-filters:sRGB"
       id="filter1904"
       x="-0.99509394"
       width="2.9901879"
       y="-0.24718366"
       height="1.4943673">
      <feGaussianBlur
         inkscape:collect="always"
         stdDeviation="1.7563151"
         id="feGaussianBlur1906" />
    </filter>
    <filter
       inkscape:collect="always"
       style="color-interpolation-filters:sRGB"
       id="filter2203"
       x="-0.54934194"
       width="2.0986839"
       y="-0.3095836"
       height="1.6191672">
      <feGaussianBlur
         inkscape:collect="always"
         stdDeviation="0.89463857"
         id="feGaussianBlur2205" />
    </filter>
    <filter
       inkscape:collect="always"
       style="color-interpolation-filters:sRGB"
       id="filter3142"
       x="-0.73437817"
       width="2.4687563"
       y="-0.067478507"
       height="1.134957">
      <feGaussianBlur
         inkscape:collect="always"
         stdDeviation="0.75171957"
         id="feGaussianBlur3144" />
    </filter>
    <filter
       inkscape:collect="always"
       style="color-interpolation-filters:sRGB"
       id="filter3173"
       x="-1.2874141"
       width="3.5748282"
       y="-0.23398632"
       height="1.4679726">
      <feGaussianBlur
         inkscape:collect="always"
         stdDeviation="1.3569227"
         id="feGaussianBlur3175" />
    </filter>
    <filter
       inkscape:collect="always"
       style="color-interpolation-filters:sRGB"
       id="filter3629"
       x="-0.88247265"
       width="2.7649453"
       y="-0.25527621"
       height="1.5105524">
      <feGaussianBlur
         inkscape:collect="always"
         stdDeviation="2.5687594"
         id="feGaussianBlur3631" />
    </filter>
    <filter
       inkscape:collect="always"
       style="color-interpolation-filters:sRGB"
       id="filter3652"
       x="-0.97106124"
       width="2.9421225"
       y="-0.24871267"
       height="1.4974253">
      <feGaussianBlur
         inkscape:collect="always"
         stdDeviation="2.7486315"
         id="feGaussianBlur3654" />
    </filter>
    <filter
       inkscape:collect="always"
       style="color-interpolation-filters:sRGB"
       id="filter4368"
       x="-0.022793233"
       width="1.0455865"
       y="-0.085595301"
       height="1.1711906">
      <feGaussianBlur
         inkscape:collect="always"
         stdDeviation="2.1144918"
         id="feGaussianBlur4370" />
    </filter>
  </defs>
  <sodipodi:namedview
     id="base"
     pagecolor="#ffffff"
     bordercolor="#666666"
     borderopacity="1.0"
     inkscape:pageopacity="0.0"
     inkscape:pageshadow="2"
     inkscape:zoom="1.979899"
     inkscape:cx="283.35969"
     inkscape:cy="936.3823"
     inkscape:document-units="mm"
     inkscape:current-layer="layer1"
     showgrid="false"
     inkscape:window-width="1680"
     inkscape:window-height="950"
     inkscape:window-x="0"
     inkscape:window-y="27"
     inkscape:window-maximized="1" />
  <metadata
     id="metadata5">
    <rdf:RDF>
      <cc:Work
         rdf:about="">
        <dc:format>image/svg+xml</dc:format>
        <dc:type
           rdf:resource="http://purl.org/dc/dcmitype/StillImage" />
        <dc:title></dc:title>
      </cc:Work>
    </rdf:RDF>
  </metadata>
  <g
     inkscape:label="Capa 1"
     inkscape:groupmode="layer"
     id="layer1">
    <path
       style="font-style:normal;font-variant:normal;font-weight:bold;font-stretch:normal;font-size:14.11111069px;line-height:1.25;font-family:'Lohit Assamese';-inkscape-font-specification:'Lohit Assamese Bold';letter-spacing:0px;word-spacing:0px;fill:#1e1e1e;fill-opacity:1;stroke:#000000;stroke-width:0.37795275;stroke-miterlimit:4;stroke-dasharray:none;stroke-opacity:1;filter:url(#filter4368)"
       d="m 341.4668,253.44141 c -1.90258,-0.0528 -3.6854,0.51312 -4.28711,1.8457 -2.31688,5.13119 -3.68365,12.94822 -4.29297,20.63086 -0.12746,-0.16628 -0.25003,-0.33688 -0.38867,-0.49219 -2.22717,-2.49471 -5.94125,-3.12859 -9.10547,-4.21094 -1.37401,-0.46996 -2.85708,-0.55305 -4.2461,-0.97656 -1.42594,-0.43478 -3.09846,-0.56916 -4.17578,-1.59961 -0.65106,-0.62274 -1.13557,-1.57941 -1.07812,-2.47851 0.0746,-1.17128 0.83079,-2.36758 1.80273,-3.02539 5.09923,-3.25924 11.42547,1.61373 17.25781,2.37695 2.27721,-1.52934 1.90199,-6.05266 0.22657,-8.22461 -2.64272,-2.70531 -19.78205,-3.02641 -24.39844,0.52539 -1.79686,1.51411 -2.99669,3.79213 -3.58594,6.16211 -0.46125,-2.82337 -1.53614,-5.28784 -3.78711,-6.96094 -2.68221,-1.99365 -7.9243,-1.2213 -9.91797,1.46094 -4.6346,6.23533 3.13753,15.29375 3.39454,23.05859 0.0781,2.35921 0.69247,5.06178 -0.56641,7.0586 -0.98684,1.56539 -2.97005,2.51751 -4.80078,2.78711 -1.83077,0.2696 -4.00631,-0.0682 -5.40039,-1.28516 -1.77683,-1.55108 -1.95202,-4.31883 -2.55274,-6.59961 -1.97884,-7.51286 2.84082,-18.42399 -3.39453,-23.05859 -2.68222,-1.99366 -7.92626,-1.2213 -9.91992,1.46093 -4.63461,6.23533 1.03625,15.65669 3.39648,23.0586 0.35092,1.10052 0.68818,2.25546 1.05664,3.40625 -4.36802,-0.19958 -9.81884,6.79172 -13.85156,4.36328 -8.13218,-4.89712 1.72183,-23.58362 -6.86133,-27.63867 -2.08123,-0.98327 -5.47416,0.79805 -6.23437,2.9707 -0.66654,1.90496 -1.21529,3.9249 -1.61719,6.01172 -0.77596,-0.80533 -1.66704,-1.48783 -2.69336,-2.02344 -3.03723,-1.6126 -6.97505,-1.90815 -11.8164,-0.88672 0,0 -14.06413,2.16582 -13.11133,9.8125 1.58995,12.76019 6.88756,29.28779 9.32812,30.8125 2.10094,1.31253 5.62689,-0.41118 6.79297,-2.52734 1.88018,-3.41188 -4.25482,-8.00954 -2.40429,-11.4375 0.78825,-1.46018 4.63476,-1.81641 4.63476,-1.81641 4.4155,-0.93159 7.69101,-2.56338 9.85156,-4.8789 1.00951,3.39561 2.63419,6.64387 5.03125,9.54297 5.33946,6.45775 21.50279,2.42164 26.30664,-5.10938 0.0523,-0.082 0.096,-0.17023 0.14063,-0.25781 0.40339,0.44345 0.84255,0.85331 1.33398,1.21289 3.56028,2.60507 8.69392,2.79962 13.0586,2.1582 4.37287,-0.64262 9.24206,-2.30737 11.90625,-5.83398 0.49631,-0.65696 0.88546,-1.36954 1.18945,-2.12305 0.20974,0.52168 0.44666,1.01547 0.73633,1.41992 4.199,3.84974 21.71501,5.1694 28.18359,-2.30078 0.0711,1.4868 0.17777,2.86683 0.31836,4.10156 0.37811,3.32055 8.57371,4.13442 9.96484,1.09571 0.0228,-0.0499 0.0456,-0.10962 0.0684,-0.16016 1.65294,2.76885 6.90142,2.74767 9.81836,1.2793 2.23389,-1.12453 1.27779,-5.50633 3.51172,-6.63086 4.66764,-2.34967 11.74863,-1.27865 15.5,2.35937 1.79335,1.73915 -0.43983,5.63195 1.35352,7.3711 2.41156,2.33871 7.6508,3.95277 9.96289,1.51562 0.21461,-0.22622 0.41033,-0.46396 0.60742,-0.70117 1.90614,2.36863 6.3653,3.64701 8.7207,1.92383 8.21462,-6.0097 -8.95863,-28.89591 1.08985,-30.51563 9.02853,-1.45529 5.56402,19.70873 9.54492,25.72071 1.16939,1.76601 4.06439,2.21322 6.12109,1.70703 8.94584,-2.20177 12.39605,-23.92242 20.13867,-18.92969 8.73124,5.63019 -14.9167,20.30265 -10.07421,29.49414 1.47276,2.79548 6.45268,4.2216 9.13086,2.54492 11.03119,-6.90607 13.90415,-27.38093 6.99804,-38.41211 -2.25248,-3.59786 -8.22489,-4.72023 -12.26562,-3.41992 -7.18175,2.31109 -6.90078,19.68572 -14.16602,17.65234 -7.25866,-2.03157 1.99679,-16.72692 -2.94336,-22.41992 -2.78774,-3.21257 -8.58621,-5.51541 -12.29101,-3.42578 -4.20032,2.36913 -7.60118,6.59883 -9.88868,11.55664 -2.33175,-5.23183 -5.57666,-10.02751 -9.10937,-13.3789 -2.89058,-2.74223 -8.2409,-3.55698 -11.81641,-1.79883 -5.13086,2.52296 -10.49374,7.04571 -14.59179,12.35742 0.34947,-5.43764 0.0715,-10.58595 -1.16407,-14.33594 -0.58826,-1.78546 -3.23352,-2.87352 -5.67968,-2.9414 z m 25.48242,14.78711 c 0.1669,0.004 0.33345,0.0191 0.50195,0.0449 5.38931,0.82435 6.72504,12.18173 2.92578,16.09179 -2.47415,2.54631 -8.92903,1.5667 -10.53125,-1.60156 -2.38471,-4.71553 1.92956,-14.66769 7.10352,-14.53515 z m -61.53516,2.58007 c 0.42317,1.20652 1.04307,2.33878 1.85156,3.27149 2.05784,2.37399 5.4816,3.12558 8.42774,4.2168 1.24229,0.46011 2.59639,0.55487 3.85547,0.96679 1.59519,0.52188 3.48424,0.70664 4.66406,1.90039 0.7163,0.72476 1.20153,1.82808 1.11914,2.84375 -0.0963,1.18914 -0.8525,2.39232 -1.83008,3.07617 -1.40492,0.98268 -3.34014,0.94374 -5.05468,0.95508 -5.09465,-0.012 -9.01621,-3.13666 -13.67579,-4.33008 0.0228,-1.23225 0.0141,-2.45899 0.0332,-3.63671 0.0462,-2.84613 0.43589,-6.08041 0.60937,-9.26368 z m -73.33203,7.45899 c 1.03141,0.007 1.93062,0.22933 2.69922,0.66601 1.22974,0.69869 2.02451,1.89699 2.38281,3.59571 0.35842,1.69871 0.11839,3.12442 -0.7207,4.27734 -0.84268,1.13593 -2.21659,1.90524 -4.11914,2.30664 -6.75296,1.3781 -9.28957,-9.05773 -2.24024,-10.625 0.71346,-0.15053 1.3792,-0.22488 1.99805,-0.2207 z"
       transform="matrix(0.26458333,0,0,0.26458333,3.1749999,-26.987511)"
       id="path831-51"
       inkscape:connector-curvature="0" />
    <path
       inkscape:connector-curvature="0"
       id="path831"
       style="font-style:normal;font-variant:normal;font-weight:bold;font-stretch:normal;font-size:14.11111069px;line-height:1.25;font-family:'Lohit Assamese';-inkscape-font-specification:'Lohit Assamese Bold';letter-spacing:0px;word-spacing:0px;fill:#aad400;fill-opacity:1;stroke:#000000;stroke-width:0.1;stroke-miterlimit:4;stroke-dasharray:none;stroke-opacity:1"
       d="m 106.07973,41.585205 c 0.98023,-0.552881 2.51462,0.05654 3.25221,0.906532 1.30708,1.506272 -1.14208,5.394599 0.77844,5.932121 1.92226,0.537998 1.84794,-4.0589 3.74811,-4.670376 1.06911,-0.344041 2.64961,-0.04725 3.24558,0.904685 1.82724,2.918665 1.06676,8.33578 -1.85191,10.163013 -0.7086,0.443622 -2.02626,0.06621 -2.41593,-0.673425 -1.28124,-2.431916 4.97582,-6.313949 2.66568,-7.803603 -2.04857,-1.320993 -2.96122,4.426038 -5.32814,5.00859 -0.54417,0.133929 -1.31007,0.01584 -1.61947,-0.451419 -1.05328,-1.590668 -0.13676,-7.190416 -2.52556,-6.80537 -2.65866,0.428549 1.88486,6.483749 -0.28859,8.073816 -0.67658,0.494976 -2.01073,0.05489 -2.42256,-0.675274 -1.6846,-2.986686 -0.22455,-8.224693 2.76214,-9.90929 z"
       sodipodi:nodetypes="aaaaaaaaasaaaa" />
    <path
       style="font-style:normal;font-variant:normal;font-weight:bold;font-stretch:normal;font-size:14.11111069px;line-height:1.25;font-family:'Lohit Assamese';-inkscape-font-specification:'Lohit Assamese Bold';letter-spacing:0px;word-spacing:0px;fill:#000000;fill-opacity:1;stroke:#000000;stroke-width:0.37795275;stroke-miterlimit:4;stroke-dasharray:none;stroke-opacity:1;filter:url(#filter3652)"
       d="m 359.67969,235.625 c -3.86012,8.36622 -4.54865,18.80658 -0.55078,25.89453 0.1228,0.21773 0.27228,0.42603 0.43554,0.62891 5.46036,-6.57178 4.25214,-17.24135 0.11524,-26.52344 z"
       transform="matrix(0.26458333,0,0,0.26458333,8.960722,-17.330564)"
       id="path831-5"
       inkscape:connector-curvature="0" />
    <path
       inkscape:connector-curvature="0"
       id="path829"
       style="font-style:normal;font-variant:normal;font-weight:bold;font-stretch:normal;font-size:14.11111069px;line-height:1.25;font-family:'Lohit Assamese';-inkscape-font-specification:'Lohit Assamese Bold';letter-spacing:0px;word-spacing:0px;fill:#decd87;fill-opacity:1;stroke:#000000;stroke-width:0.1;stroke-miterlimit:4;stroke-dasharray:none;stroke-opacity:1"
       d="m 100.27787,49.494969 c -0.992553,-0.96256 -2.865697,-1.245768 -4.100683,-0.624086 -0.591054,0.297532 -0.338032,1.456782 -0.929087,1.754314 -0.793919,0.399654 -2.24395,0.396425 -2.636155,-0.401199 -1.613551,-3.281428 2.033251,-7.983115 5.314677,-9.596663 0.946018,-0.465176 2.361798,-0.249708 3.126598,0.47584 2.65285,2.516688 4.73582,8.090395 2.21913,10.743237 -0.61174,0.64483 -1.99809,0.217589 -2.63615,-0.401197 -0.47449,-0.460148 0.11616,-1.490097 -0.35833,-1.950246 z m -3.15959,-2.41142 c 0.423921,0.838268 2.131394,1.097714 2.786013,0.424005 1.005217,-1.034537 0.652107,-4.039557 -0.773811,-4.257667 -1.426626,-0.218232 -2.663512,2.545763 -2.012202,3.833662 z"
       sodipodi:nodetypes="aaaaaaaaaaaaa" />
    <path
       style="font-style:normal;font-variant:normal;font-weight:bold;font-stretch:normal;font-size:14.11111069px;line-height:1.25;font-family:'Lohit Assamese';-inkscape-font-specification:'Lohit Assamese Bold';letter-spacing:0px;word-spacing:0px;fill:#000000;fill-opacity:1;stroke:#000000;stroke-width:0.37795275;stroke-miterlimit:4;stroke-dasharray:none;stroke-opacity:1;filter:url(#filter3629)"
       d="m 336.93359,241.95898 c -5.80767,7.52767 -9.07159,16.64269 -5.49609,23.91407 0.0414,0.0841 0.0971,0.15688 0.14453,0.23633 2.52343,-5.59625 4.7799,-15.25592 5.35156,-24.1504 z"
       transform="matrix(0.26458333,0,0,0.26458333,5.2916667,-19.503571)"
       id="path829-7"
       inkscape:connector-curvature="0" />
    <path
       inkscape:connector-curvature="0"
       id="path827"
       style="font-style:normal;font-variant:normal;font-weight:bold;font-stretch:normal;font-size:14.11111069px;line-height:1.25;font-family:'Lohit Assamese';-inkscape-font-specification:'Lohit Assamese Bold';letter-spacing:0px;word-spacing:0px;fill:#ffcc00;fill-opacity:1;stroke:#000000;stroke-width:0.1;stroke-miterlimit:4;stroke-dasharray:none;stroke-opacity:1"
       d="m 91.121062,39.813707 c 0.363888,-0.805893 2.360089,-0.549547 2.636789,0.290284 0.86644,2.629782 -0.04183,7.857737 -1.125698,10.225277 -0.36807,0.803992 -2.536756,0.588279 -2.63679,-0.290283 -0.297712,-2.614703 -0.02581,-7.675054 1.125699,-10.225278 z"
       sodipodi:nodetypes="sssss" />
    <path
       style="font-style:normal;font-variant:normal;font-weight:bold;font-stretch:normal;font-size:14.11111069px;line-height:1.25;font-family:'Lohit Assamese';-inkscape-font-specification:'Lohit Assamese Bold';letter-spacing:0px;word-spacing:0px;fill:#000500;fill-opacity:1;stroke:#000000;stroke-width:0.37795275;stroke-miterlimit:4;stroke-dasharray:none;stroke-opacity:1;filter:url(#filter3173)"
       d="m 329.82617,232.00586 c -0.39258,4.94782 -0.4764,9.83842 -0.28125,13.91797 1.5175,-1.75157 2.4302,-3.98388 2.41797,-6.78321 0.10822,-2.46723 -0.62443,-5.16262 -2.13672,-7.13476 z"
       transform="matrix(0.26458333,0,0,0.26458333,2.8820686,-15.922247)"
       id="path827-2"
       inkscape:connector-curvature="0" />
    <path
       inkscape:connector-curvature="0"
       id="path825"
       style="font-style:normal;font-variant:normal;font-weight:bold;font-stretch:normal;font-size:14.11111069px;line-height:1.25;font-family:'Lohit Assamese';-inkscape-font-specification:'Lohit Assamese Bold';letter-spacing:0px;word-spacing:0px;fill:#deaa87;fill-opacity:1;stroke:#000000;stroke-width:0.1;stroke-miterlimit:4;stroke-dasharray:none;stroke-opacity:1"
       d="m 90.062723,40.342876 c 0.443285,0.574661 0.542608,1.771839 -0.05989,2.176476 -1.54314,-0.201936 -3.217241,-1.491171 -4.566407,-0.628831 -0.257165,0.174048 -0.45721,0.490327 -0.476946,0.800226 -0.01518,0.237888 0.112978,0.491003 0.285238,0.655771 0.285032,0.272639 0.727705,0.30826 1.104986,0.423297 0.367509,0.112054 0.759774,0.134029 1.123309,0.258373 0.837199,0.28637 1.820131,0.453947 2.409396,1.114007 0.47175,0.528425 0.699274,1.309614 0.668232,2.017299 0.01703,3.898482 -6.724808,3.660733 -8.096246,2.403365 -0.434625,-0.606853 -0.57063,-1.841656 0.0616,-2.238465 1.246533,0.309644 2.289707,1.151813 3.648972,1.15501 0.453634,-0.003 0.965545,0.0073 1.337264,-0.252699 0.258652,-0.180937 0.458736,-0.499186 0.484211,-0.813812 0.02177,-0.268729 -0.106839,-0.560818 -0.296359,-0.752577 -0.312161,-0.315848 -0.811699,-0.364581 -1.233765,-0.502661 -0.333131,-0.108987 -0.691311,-0.133791 -1.019995,-0.25553 -0.779505,-0.288718 -1.685657,-0.487847 -2.23013,-1.115967 -0.453055,-0.522658 -0.691543,-1.277947 -0.655783,-1.968707 0.04418,-0.853244 0.403465,-1.784601 1.056821,-2.335149 1.221422,-0.939747 5.756277,-0.855207 6.455497,-0.139428 z"
       sodipodi:nodetypes="cccaaaaaccccaaaaaaaccc" />
    <path
       style="font-style:normal;font-variant:normal;font-weight:bold;font-stretch:normal;font-size:14.11111069px;line-height:1.25;font-family:'Lohit Assamese';-inkscape-font-specification:'Lohit Assamese Bold';letter-spacing:0px;word-spacing:0px;fill:#000000;fill-opacity:1;stroke:#000000;stroke-width:0.37795275;stroke-miterlimit:4;stroke-dasharray:none;stroke-opacity:1;filter:url(#filter3142)"
       d="m 313.72266,224.75977 c -0.22055,0.88703 -0.36273,1.78578 -0.40821,2.66406 -0.0713,1.37805 0.15389,2.82114 0.62696,4.16992 0.12908,-2.36852 0.12956,-4.7019 -0.21875,-6.83398 z m -0.53907,19.69921 c -1.96736,1.23479 -1.94921,4.60065 -0.9707,7.03711 0.85699,-2.12529 1.04106,-4.57266 1.08594,-7.00195 -0.0391,-0.01 -0.0761,-0.0254 -0.11524,-0.0352 z"
       transform="matrix(0.26458333,0,0,0.26458333,-0.19597162,-17.30813)"
       id="path825-9"
       inkscape:connector-curvature="0" />
    <path
       inkscape:connector-curvature="0"
       id="path823"
       style="font-style:normal;font-variant:normal;font-weight:bold;font-stretch:normal;font-size:14.11111069px;line-height:1.25;font-family:'Lohit Assamese';-inkscape-font-specification:'Lohit Assamese Bold';letter-spacing:0px;word-spacing:0px;fill:#ffb380;fill-opacity:1;stroke:#000000;stroke-width:0.1;stroke-miterlimit:4;stroke-dasharray:none;stroke-opacity:1"
       d="m 72.883455,41.562717 c 0.527489,-0.709675 1.914745,-0.913965 2.62442,-0.386477 1.649764,1.22624 0.37487,4.113145 0.898432,6.100924 0.158944,0.603457 0.204899,1.335799 0.675016,1.746188 0.368844,0.321987 0.944615,0.411091 1.429004,0.339759 0.484389,-0.07133 1.00929,-0.3231 1.270399,-0.737277 0.333071,-0.528324 0.170461,-1.243444 0.149801,-1.867652 -0.068,-2.054448 -2.124671,-4.45116 -0.898432,-6.100924 0.527489,-0.709675 1.914745,-0.913964 2.62442,-0.386476 1.649764,1.226239 0.931838,4.045621 0.898432,6.100924 -0.01859,1.143761 0.07949,2.464347 -0.610041,3.37708 -0.704907,0.933082 -1.993503,1.373418 -3.150494,1.543444 -1.154825,0.169708 -2.512873,0.11853 -3.454864,-0.570729 -0.923173,-0.67549 -1.210146,-1.968013 -1.557661,-3.057861 -0.624473,-1.958422 -2.124671,-4.45116 -0.898432,-6.100923 z"
       sodipodi:nodetypes="aaaaaaaaaaaaaaa" />
    <path
       style="font-style:normal;font-variant:normal;font-weight:bold;font-stretch:normal;font-size:14.11111069px;line-height:1.25;font-family:'Lohit Assamese';-inkscape-font-specification:'Lohit Assamese Bold';letter-spacing:0px;word-spacing:0px;fill:#000000;fill-opacity:1;stroke:#000000;stroke-width:0.37795275;stroke-miterlimit:4;stroke-dasharray:none;stroke-opacity:1;filter:url(#filter2203)"
       d="m 293.47461,246.60156 c 0.81608,2.54851 1.79999,5.07223 3.49414,6.93555 1.00959,-1.98094 0.0845,-5.29637 -1.80078,-6.43164 -0.54034,-0.32539 -1.10813,-0.47694 -1.69336,-0.50391 z"
       transform="matrix(0.26458333,0,0,0.26458333,-3.2072343,-16.375629)"
       id="path823-9"
       inkscape:connector-curvature="0" />
    <path
       inkscape:connector-curvature="0"
       id="path821"
       style="font-style:normal;font-variant:normal;font-weight:bold;font-stretch:normal;font-size:14.11111069px;line-height:1.25;font-family:'Lohit Assamese';-inkscape-font-specification:'Lohit Assamese Bold';letter-spacing:0px;word-spacing:0px;fill:#de8787;fill-opacity:1;stroke:#000000;stroke-width:0.1;stroke-miterlimit:4;stroke-dasharray:none;stroke-opacity:1"
       d="m 66.931826,43.192565 c 0.201139,-0.574847 1.098695,-1.046145 1.649354,-0.78599 2.270963,1.072898 -0.335905,6.017205 1.815735,7.3129 1.210073,0.728693 2.902672,-1.749856 4.112746,-1.021162 0.520904,0.313682 0.766588,1.257781 0.439583,1.770428 -1.271019,1.992582 -5.547562,3.060333 -6.960296,1.351718 -2.069522,-2.502964 -1.98257,-5.983019 -1.057122,-8.627894 z"
       sodipodi:nodetypes="saaaass" />
    <path
       style="font-style:normal;font-variant:normal;font-weight:bold;font-stretch:normal;font-size:14.11111069px;line-height:1.25;font-family:'Lohit Assamese';-inkscape-font-specification:'Lohit Assamese Bold';letter-spacing:0px;word-spacing:0px;fill:#000000;fill-opacity:1;stroke:#000000;stroke-width:0.37795275;stroke-miterlimit:4;stroke-dasharray:none;stroke-opacity:1;filter:url(#filter1904)"
       d="m 270.08203,228.72852 c -1.06043,5.50743 -1.07464,11.48028 0.58203,17.05273 0.20826,-0.22321 0.41817,-0.44557 0.60547,-0.68164 2.14386,-2.70571 2.79536,-6.05489 1.95313,-10.04688 -0.55627,-2.63657 -1.61119,-4.73603 -3.14063,-6.32421 z"
       transform="matrix(0.26458333,0,0,0.26458333,-4.7625002,-15.345837)"
       id="path821-4"
       inkscape:connector-curvature="0" />
    <path
       inkscape:connector-curvature="0"
       id="path819"
       style="font-style:normal;font-variant:normal;font-weight:bold;font-stretch:normal;font-size:14.11111069px;line-height:1.25;font-family:'Lohit Assamese';-inkscape-font-specification:'Lohit Assamese Bold';letter-spacing:0px;word-spacing:0px;opacity:0.98000004;fill:#ffaaaa;fill-opacity:1;stroke:#000000;stroke-width:0.1;stroke-miterlimit:4;stroke-dasharray:none;stroke-opacity:1"
       d="m 59.196041,46.609661 c -0.252094,-2.023186 3.468569,-2.596508 3.468569,-2.596508 1.280937,-0.270253 2.323204,-0.192045 3.126799,0.234623 0.807141,0.421226 1.321659,1.157697 1.543551,2.209414 0.222841,1.056212 0.05064,1.942262 -0.516588,2.658148 -0.563686,0.710445 -1.485997,1.200794 -2.766935,1.471047 0,0 -1.017721,0.09432 -1.22628,0.480659 -0.489618,0.906983 1.133633,2.123227 0.63617,3.025954 -0.308526,0.559901 -1.241521,1.016212 -1.797393,0.668939 -0.645733,-0.403413 -2.047248,-4.776137 -2.467922,-8.15227 z m 4.182136,2.154087 c 0.503385,-0.106205 0.866558,-0.309581 1.089518,-0.610128 0.222011,-0.305043 0.285603,-0.68229 0.190778,-1.131742 -0.09483,-0.449451 -0.304924,-0.766607 -0.630296,-0.951467 -0.325371,-0.184861 -0.73975,-0.224189 -1.243136,-0.117984 -1.865136,0.414674 -1.193585,3.175943 0.593136,2.811321 z"
       sodipodi:nodetypes="sscscsaassccsscc" />
  </g>
</svg>
